<?xml version="1.0" encoding="utf-8"?>
<!-- Generator: Adobe Illustrator 27.9.0, SVG Export Plug-In . SVG Version: 6.00 Build 0)  -->
<svg version="1.1" id="Camada_1" xmlns="http://www.w3.org/2000/svg" xmlns:xlink="http://www.w3.org/1999/xlink" x="0px" y="0px"
	 viewBox="0 0 1920 430" style="enable-background:new 0 0 1920 430;" xml:space="preserve">
<style type="text/css">
	.st0{fill:#EFEFEF;}
</style>
<g>
	<g>
		<path class="st0" d="M280.6,102.4c3.7,3.5,5.5,7.8,5.5,13v172.6c0,5.2-1.7,9.5-5.1,13c-3.4,3.5-7.9,5.2-13.4,5.2
			c-5.6,0-10.1-1.7-13.6-5.1c-3.5-3.4-5.2-7.8-5.2-13.1V167.8l-49.2,75.1c-2,2.4-4.3,4.3-6.9,5.8c-2.6,1.5-5.3,2.1-8,1.9
			c-2.6,0.2-5.2-0.4-7.8-1.9c-2.6-1.5-4.9-3.4-6.9-5.8L121,165.1v122.8c0,5.4-1.6,9.7-4.8,13.1c-3.2,3.4-7.4,5.1-12.5,5.1
			c-5,0-9-1.7-12.2-5.2c-3.2-3.5-4.8-7.8-4.8-13V115.3c0-5,1.8-9.2,5.5-12.8c3.7-3.6,8.1-5.4,13.3-5.4c3,0,6,0.7,8.9,2.2
			c3,1.5,5.3,3.4,6.9,5.8l65,99.9l66.8-99.9c1.6-2.4,3.7-4.3,6.4-5.8c2.7-1.5,5.4-2.2,8.2-2.2C272.6,97.1,276.9,98.9,280.6,102.4z"
			/>
		<path class="st0" d="M458.4,269.3c-7.2,12.6-16.9,22.4-29.4,29.4c-12.4,7-26.1,10.4-41,10.4c-15.1,0-28.8-3.5-41.1-10.4
			c-12.3-7-22.1-16.7-29.2-29.4c-7.2-12.6-10.7-26.9-10.7-42.8c0-15.9,3.6-30.2,10.7-42.8c7.2-12.6,16.9-22.5,29.2-29.5
			c12.3-7.1,26-10.6,41.1-10.6c14.9,0,28.6,3.5,41,10.6c12.4,7.1,22.2,16.9,29.4,29.5c7.2,12.6,10.7,26.9,10.7,42.8
			C469.1,242.4,465.6,256.7,458.4,269.3z M427.3,200.4c-4.1-7.6-9.5-13.6-16.4-17.7c-6.9-4.2-14.5-6.3-22.8-6.3
			c-8.3,0-15.9,2.1-22.8,6.3c-6.9,4.2-12.3,10.1-16.4,17.7c-4.1,7.7-6.1,16.3-6.1,26.1c0,9.7,2,18.4,6.1,25.9
			c4.1,7.6,9.5,13.4,16.4,17.6c6.9,4.2,14.5,6.3,22.8,6.3c8.3,0,15.9-2.1,22.8-6.3c6.9-4.2,12.3-10,16.4-17.6
			c4.1-7.5,6.1-16.2,6.1-25.9C433.4,216.8,431.3,208.1,427.3,200.4z"/>
		<path class="st0" d="M571.5,276.4c2.3,2.7,3.4,6.2,3.4,10.6c0,5.4-2.9,9.9-8.8,13.6c-5.9,3.7-12.5,5.5-19.8,5.5
			c-12.3,0-22.7-2.6-31.1-7.9c-8.4-5.3-12.7-16.4-12.7-33.5v-82.3h-13.7c-4.8,0-8.7-1.6-11.9-4.8c-3.2-3.2-4.8-7.2-4.8-11.9
			c0-4.6,1.6-8.4,4.8-11.5c3.2-3.1,7.2-4.6,11.9-4.6h13.7v-19.1c0-5.2,1.7-9.5,5.2-13c3.5-3.5,7.8-5.2,13-5.2c5,0,9.1,1.7,12.5,5.2
			c3.4,3.5,5.1,7.8,5.1,13v19.1h21.2c4.8,0,8.7,1.6,11.9,4.8c3.2,3.2,4.8,7.2,4.8,11.9c0,4.6-1.6,8.4-4.8,11.5
			c-3.2,3.1-7.2,4.6-11.9,4.6h-21.2v80.8c0,4.2,1.1,7.2,3.3,9.1c2.2,1.9,5.2,2.8,8.9,2.8c1.6,0,3.8-0.4,6.6-1.2
			c2.4-1,4.7-1.5,6.9-1.5C566.7,272.4,569.2,273.8,571.5,276.4z"/>
		<path class="st0" d="M738,269.3c-7.2,12.6-16.9,22.4-29.4,29.4c-12.4,7-26.1,10.4-41,10.4c-15.1,0-28.8-3.5-41.1-10.4
			c-12.3-7-22.1-16.7-29.2-29.4c-7.2-12.6-10.7-26.9-10.7-42.8c0-15.9,3.6-30.2,10.7-42.8c7.2-12.6,16.9-22.5,29.2-29.5
			c12.3-7.1,26-10.6,41.1-10.6c14.9,0,28.6,3.5,41,10.6c12.4,7.1,22.2,16.9,29.4,29.5c7.2,12.6,10.7,26.9,10.7,42.8
			C748.7,242.4,745.1,256.7,738,269.3z M706.8,200.4c-4.1-7.6-9.5-13.6-16.4-17.7c-6.9-4.2-14.5-6.3-22.8-6.3s-15.9,2.1-22.8,6.3
			c-6.9,4.2-12.3,10.1-16.4,17.7c-4.1,7.7-6.1,16.3-6.1,26.1c0,9.7,2,18.4,6.1,25.9c4.1,7.6,9.5,13.4,16.4,17.6
			c6.9,4.2,14.5,6.3,22.8,6.3s15.9-2.1,22.8-6.3c6.9-4.2,12.3-10,16.4-17.6c4.1-7.5,6.1-16.2,6.1-25.9
			C712.9,216.8,710.9,208.1,706.8,200.4z"/>
		<path class="st0" d="M864.5,148.7c4.1,3.4,6.1,7.4,6.1,11.9c0,6.2-1.6,10.8-4.8,13.9c-3.2,3.1-7,4.6-11.3,4.6
			c-3,0-6.4-0.7-10.1-2.1c-0.6-0.2-1.9-0.6-4-1.2c-2.1-0.6-4.3-0.9-6.7-0.9c-5.2,0-10.1,1.6-14.9,4.8c-4.8,3.2-8.7,8-11.8,14.5
			c-3.1,6.5-4.6,14.2-4.6,23.1v70.6c0,5.2-1.7,9.5-5.1,13c-3.4,3.5-7.7,5.2-12.8,5.2c-5.2,0-9.4-1.7-12.8-5.2
			c-3.4-3.5-5.1-7.8-5.1-13V164.8c0-5.2,1.7-9.5,5.1-13c3.4-3.5,7.6-5.2,12.8-5.2c5.2,0,9.4,1.7,12.8,5.2c3.4,3.5,5.1,7.8,5.1,13
			v3.9c4.6-8.1,11.1-14.4,19.7-18.6c8.5-4.3,17.7-6.4,27.4-6.4C855.4,143.6,860.4,145.3,864.5,148.7z"/>
		<path class="st0" d="M885.2,124c-2.8-2.2-4.2-6.1-4.2-11.6v-5.7c0-5.6,1.5-9.4,4.5-11.6c3-2.2,7.7-3.3,14.3-3.3
			c7,0,11.8,1.1,14.6,3.3c2.8,2.2,4.2,6.1,4.2,11.6v5.7c0,5.8-1.4,9.7-4.3,11.8c-2.9,2.1-7.8,3.1-14.8,3.1
			C892.8,127.3,888,126.2,885.2,124z M912.6,300.9c-3.4,3.5-7.7,5.2-12.8,5.2c-5.2,0-9.4-1.7-12.8-5.2c-3.4-3.5-5.1-7.8-5.1-13
			V164.8c0-5.2,1.7-9.5,5.1-13c3.4-3.5,7.6-5.2,12.8-5.2c5.2,0,9.4,1.7,12.8,5.2c3.4,3.5,5.1,7.8,5.1,13v123.1
			C917.7,293.1,916,297.4,912.6,300.9z"/>
		<path class="st0" d="M930.5,272.4c0-5.2,2.6-9.5,7.7-13.1c2.8-1.8,5.7-2.7,8.6-2.7c4.2,0,8.1,1.9,11.9,5.7
			c6,6.2,12.2,10.7,18.6,13.7c6.5,3,14.3,4.5,23.4,4.5c15.5-0.6,23.2-6.5,23.2-17.6c0-5.8-2.6-10.1-7.9-13.1c-5.3-3-13.5-6-24.6-8.9
			c-11.5-3.2-20.9-6.4-28.2-9.5c-7.3-3.2-13.5-8-18.8-14.5c-5.3-6.5-7.9-15.2-7.9-26.1c0-9.5,2.7-17.8,8.2-24.9
			c5.5-7.1,12.6-12.5,21.5-16.4c8.8-3.9,18.2-5.8,28.2-5.8c10.1,0,20.3,1.9,30.4,5.7c10.1,3.8,18.1,9.3,23.8,16.7
			c2.6,3.2,3.9,6.8,3.9,10.7c0,4.6-1.9,8.3-5.7,11.3c-2.8,2.2-6,3.3-9.5,3.3c-4.4,0-7.9-1.4-10.7-4.2c-3.6-4.4-8.2-7.8-13.9-10.4
			c-5.7-2.6-12.1-3.9-19.2-3.9c-15.1,0-22.7,5.5-22.7,16.4c0,4.4,1.4,7.9,4.2,10.6c2.8,2.7,6.3,4.8,10.6,6.3
			c4.3,1.5,10.3,3.3,18,5.5c10.7,3,19.7,6.1,26.8,9.2c7.2,3.2,13.2,8,18.2,14.6c5,6.6,7.5,15.2,7.5,25.9c0,9.7-2.9,18.2-8.6,25.5
			c-5.8,7.3-13.2,12.8-22.2,16.5c-9,3.8-18.3,5.7-27.9,5.7c-13.1,0-25.3-2.2-36.7-6.6c-11.3-4.4-20.6-11.4-27.7-21.2
			C931.4,279,930.5,276,930.5,272.4z"/>
		<path class="st0" d="M1158.7,276.4c2.3,2.7,3.4,6.2,3.4,10.6c0,5.4-2.9,9.9-8.8,13.6c-5.9,3.7-12.5,5.5-19.8,5.5
			c-12.3,0-22.7-2.6-31.1-7.9c-8.4-5.3-12.7-16.4-12.7-33.5v-82.3H1076c-4.8,0-8.7-1.6-11.9-4.8c-3.2-3.2-4.8-7.2-4.8-11.9
			c0-4.6,1.6-8.4,4.8-11.5c3.2-3.1,7.2-4.6,11.9-4.6h13.7v-19.1c0-5.2,1.7-9.5,5.2-13c3.5-3.5,7.8-5.2,13-5.2c5,0,9.1,1.7,12.5,5.2
			c3.4,3.5,5.1,7.8,5.1,13v19.1h21.2c4.8,0,8.7,1.6,11.9,4.8c3.2,3.2,4.8,7.2,4.8,11.9c0,4.6-1.6,8.4-4.8,11.5
			c-3.2,3.1-7.2,4.6-11.9,4.6h-21.2v80.8c0,4.2,1.1,7.2,3.3,9.1c2.2,1.9,5.2,2.8,8.9,2.8c1.6,0,3.8-0.4,6.6-1.2
			c2.4-1,4.7-1.5,6.9-1.5C1153.9,272.4,1156.4,273.8,1158.7,276.4z"/>
		<path class="st0" d="M1326.1,148.7c3.4,3.4,5.1,7.8,5.1,13.1v126.1c0,5.2-1.7,9.5-5.1,13c-3.4,3.5-7.7,5.2-12.8,5.2
			c-5.2,0-9.4-1.7-12.7-5.1c-3.3-3.4-5-7.6-5.2-12.8c-5,5.8-11.7,10.7-20.1,14.8c-8.4,4.1-17.3,6.1-26.7,6.1
			c-13.7,0-26.1-3.5-37.3-10.6c-11.1-7.1-19.9-16.8-26.4-29.4c-6.5-12.5-9.7-26.7-9.7-42.6c0-15.9,3.2-30.2,9.5-42.8
			c6.4-12.6,15.1-22.5,26.1-29.5c11-7.1,23.2-10.6,36.5-10.6c9.5,0,18.5,1.7,26.8,5.2c8.3,3.5,15.4,7.9,21.2,13.3v-0.3
			c0-5.2,1.7-9.5,5.1-13c3.4-3.5,7.6-5.2,12.8-5.2C1318.4,143.6,1322.7,145.3,1326.1,148.7z M1284.6,262.1
			c8.1-9.4,12.2-21.3,12.2-35.6c0-14.3-4.1-26.2-12.2-35.8c-8.2-9.5-18.7-14.3-31.6-14.3c-12.7,0-23.2,4.8-31.3,14.3
			c-8.2,9.5-12.2,21.5-12.2,35.8c0,14.3,4,26.2,12.1,35.6c8,9.4,18.5,14.2,31.4,14.2C1265.9,276.3,1276.5,271.6,1284.6,262.1z"/>
	</g>
	<g>
		<path class="st0" d="M1773.6,50.7l-345,30.8c-17.8,1.6-31.5,16.6-31.5,34.5l-0.1,195.2c0,9,3.4,17.1,9,23.3l0.1,0.1l3.5,3.4l0.1,0
			l39.4,37.5c3.1,3.3,7.4,5.3,12.3,5.3c9.2,0,16.7-7.5,16.7-16.7v-18.2h0V216c0-0.9-0.1-1.8-0.1-2.7s0-1.8,0.1-2.7v-51.1
			c0-9.5,7.1-17.7,16.5-18.4c7.9-0.6,14.9,4,17.9,10.7c11.5-7,25.1-11,39.7-10.6c38.6,1.1,69.9,33.2,70,71.8
			c0.1,39.9-32.2,72.3-72,72.3c-13.2,0-25.5-3.5-36.1-9.7v50.9c0,10.6,8.6,19.2,19.2,19.2h218.7c23.1,0,42.9-16.6,46.8-39.4
			l33.5-192C1838.4,79.1,1809.4,47.5,1773.6,50.7z M1753.2,254.2L1753.2,254.2c3.1,3.4,5,7.8,5,12.7c0,10.3-8.3,18.6-18.6,18.6
			c-5.4,0-10.2-2.3-13.6-5.9l0,0l-1.9-2.3l0,0l-27.3-34.3l-27.8,34.9c-3.4,4.6-8.9,7.7-15.1,7.7c-10.3,0-18.6-8.3-18.6-18.6
			c0-4.9,1.9-9.3,4.9-12.6l32.8-41.1l-32.2-40.5l-2.7-3.4l0,0c-1.8-2.8-2.8-6.2-2.8-9.8c0-10.3,8.3-18.6,18.6-18.6
			c5.4,0,10.2,2.3,13.6,5.9l1.9,2.3l0,0.1l27.3,34.3l27.1-34l2.4-3l0,0c3.4-3.4,8.1-5.6,13.3-5.6c10.3,0,18.6,8.3,18.6,18.6
			c0,3.6-1,6.9-2.8,9.8l0,0l-2.7,3.4l-32.2,40.5L1753.2,254.2z"/>
		<path class="st0" d="M1549.3,249.2c20.1,0,36.2-16.1,36.2-36.2c0-19.8-16.1-35.9-36.2-35.9c-19.8,0-35.9,16.1-35.9,35.9
			C1513.4,233.1,1529.5,249.2,1549.3,249.2z"/>
	</g>
</g>
</svg>
