<?xml version="1.0" encoding="utf-8"?>
<!-- Generator: Adobe Illustrator 27.9.0, SVG Export Plug-In . SVG Version: 6.00 Build 0)  -->
<svg version="1.1" id="Camada_1" xmlns="http://www.w3.org/2000/svg" xmlns:xlink="http://www.w3.org/1999/xlink" x="0px" y="0px"
	 viewBox="0 0 1080 1080" style="enable-background:new 0 0 1080 1080;" xml:space="preserve">
<style type="text/css">
	.st0{fill:#EFEFEF;}
</style>
<g>
	<path class="st0" d="M874.4,191.6L141.6,257c-37.9,3.4-67,35.2-67,73.2L74.4,745c0,19.1,7.2,36.4,19.1,49.5l0.1,0.1l7.5,7.2
		l0.1,0.1l83.6,79.6c6.5,7,15.8,11.3,26,11.3c19.6,0,35.6-15.9,35.6-35.6v-38.7h0V542.8c-0.1-1.9-0.1-3.8-0.1-5.6
		c0-1.9,0.1-3.8,0.1-5.6V422.9c0-20.1,15.1-37.6,35.1-39.2c16.8-1.3,31.7,8.5,37.9,22.8c24.4-15,53.4-23.3,84.3-22.4
		c82.1,2.3,148.4,70.5,148.6,152.6c0.2,84.7-68.4,153.5-153.1,153.5c-27.9,0-54.1-7.5-76.7-20.6v108.1c0,22.6,18.3,40.9,40.9,40.9
		h464.7c49.1,0,91-35.3,99.5-83.6l71.2-408C1012,251.9,950.4,184.8,874.4,191.6z M831,624L831,624c6.7,7.2,10.7,16.6,10.7,27.1
		c0,21.8-17.7,39.6-39.6,39.6c-11.4,0-21.6-4.8-28.8-12.5l0-0.1l-3.9-4.9l-0.1-0.1l-58-72.9l-59,74.2c-7.2,9.9-18.9,16.3-32,16.3
		c-21.8,0-39.6-17.7-39.6-39.6c0-10.4,4-19.8,10.5-26.9l69.6-87.3L592.6,451l-5.8-7.3l-0.1-0.1c-3.7-6-5.9-13.2-5.9-20.8
		c0-21.8,17.7-39.6,39.6-39.6c11.4,0,21.7,4.8,28.9,12.5l3.9,4.9l0.1,0.1l58,72.8l57.6-72.3l5-6.3l0.1-0.1
		c7.2-7.3,17.1-11.8,28.2-11.8c21.9,0,39.6,17.7,39.6,39.6c0,7.6-2.2,14.7-5.9,20.8l-0.1,0.1L830,451l-68.3,86L831,624z"/>
	<path class="st0" d="M397.9,613.4c42.7,0,76.9-34.2,76.9-76.9c0-42.1-34.2-76.3-76.9-76.3c-42.1,0-76.3,34.2-76.3,76.3
		C321.6,579.2,355.8,613.4,397.9,613.4z"/>
</g>
</svg>
